<?xml version="1.0" encoding="UTF-8"?> <svg xmlns="http://www.w3.org/2000/svg" height="102" viewBox="0 0 149 102" width="149"><g fill="none" fill-rule="evenodd" transform="translate(2 2)"><path d="m58.38 33.99v25.72c0 2.78 3 4.52 5.41 3.15l22.68-12.86c2.45-1.39 2.45-4.92 0-6.3l-22.68-12.86c-2.42-1.37-5.41.38-5.41 3.15z" fill="#161616" fill-rule="nonzero"></path><g stroke="#161616" stroke-linecap="round" stroke-linejoin="round" stroke-width="4"><path d="m8.78 84.6v-76.9c0-3.89 3.16-7.05 7.05-7.05h114.02c3.89 0 7.05 3.16 7.05 7.05v76.9"></path><path d="m136.44 97.35h-127.21c-4.56 0-8.26-3.7-8.26-8.26v-4.5h143.73v4.5c0 4.57-3.7 8.26-8.26 8.26z"></path></g></g></svg> 